<svg width="1694" height="854" xmlns="http://www.w3.org/2000/svg" xmlns:xlink="http://www.w3.org/1999/xlink" xml:space="preserve" overflow="hidden"><g transform="translate(-969 -644)"><rect x="1444.5" y="767.5" width="464" height="728" stroke="#042433" stroke-width="4.58333" stroke-miterlimit="8" fill="#F2F2F2"/><rect x="1444.5" y="1372.5" width="464" height="123" stroke="#042433" stroke-width="4.58333" stroke-miterlimit="8" fill="#47D45A"/><rect x="1555" y="1355" width="241" height="16.9999" stroke="#000000" stroke-width="2.29167" stroke-miterlimit="8" fill="#FFC000"/><path d="M1960.27 764.137 1990.12 770.461 1990.07 770.45 2004.76 773.3 2004.74 773.296 2019.11 775.992 2033.03 778.575 2046.41 781.092 2059.13 783.581 2071.05 786.087 2082.08 788.653 2092.1 791.326 2101 794.16 2108.65 797.199 2112.05 798.858 2115.08 800.598 2117.78 802.46 2120.12 804.476 2122.08 806.688 2123.6 809.129 2124.59 811.802 2124.98 814.812 2124.34 818.093 2122.58 821.183 2120.07 824.011 2116.89 826.741 2113.09 829.461 2108.7 832.206 2103.77 834.994 2098.33 837.828 2092.44 840.708 2086.15 843.635 2072.63 849.586 2058.18 855.651 2043.29 861.772 2028.4 867.899 2028.43 867.888 2014 873.97 2014.05 873.946 2000.55 879.928 2000.62 879.897 1994.36 882.833 1994.42 882.803 1988.57 885.692 1988.65 885.652 1983.26 888.488 1983.36 888.432 1978.5 891.207 1978.63 891.127 1974.35 893.835 1974.53 893.715 1970.89 896.349 1971.13 896.161 1968.18 898.713 1968.5 898.397 1966.32 900.861 1966.72 900.3 1965.36 902.669 1965.74 901.681 1965.25 903.947 1965.26 902.568 1965.68 904.743 1965.24 903.595 1966.52 905.696 1965.98 905.022 1968.08 907.053 1967.64 906.693 1970.49 908.658 1970.17 908.46 1973.71 910.363 1973.48 910.247 1977.66 912.094 1977.48 912.021 1982.25 913.814 1982.12 913.767 1987.4 915.51 1987.3 915.478 1993.05 917.176 1992.97 917.154 1999.13 918.81 1999.04 918.788 2012.34 921.994 2012.26 921.976 2026.49 925.065 2026.45 925.057 2041.14 928.061 2041.13 928.059 2055.84 931.014 2070.11 933.954 2083.47 936.913 2089.7 938.416 2095.53 939.938 2100.92 941.489 2105.83 943.077 2110.2 944.718 2114.02 946.438 2117.25 948.291 2119.91 950.406 2121.9 953.043 2122.71 956.314 2121.93 959.539 2120.14 962.229 2117.7 964.559 2114.69 966.728 2111.12 968.832 2107.01 970.915 2102.39 972.995 2097.31 975.079 2091.81 977.17 2085.92 979.272 2073.22 983.479 2059.59 987.695 2045.43 991.891 2031.15 996.04 2017.14 1000.12 2017.16 1000.11 2003.84 1004.09 2003.89 1004.08 1991.65 1007.94 1991.71 1007.92 1986.12 1009.79 1986.18 1009.77 1981.02 1011.6 1981.1 1011.57 1976.41 1013.36 1976.52 1013.32 1972.36 1015.06 1972.5 1015 1968.93 1016.68 1969.12 1016.58 1966.18 1018.21 1966.48 1018.03 1964.21 1019.6 1964.66 1019.22 1963.13 1020.73 1963.66 1020.07 1962.79 1021.5 1963.18 1020.56 1962.84 1021.91 1962.92 1020.64 1963.08 1021.91 1962.71 1020.74 1963.34 1021.93 1962.79 1021.17 1963.86 1022.3 1963.38 1021.88 1964.85 1022.95 1964.48 1022.71 1966.33 1023.73 1966.06 1023.59 1968.26 1024.56 1967.99 1024.45 1973.31 1026.26 1973.09 1026.19 1979.44 1027.86 1979.32 1027.83 1986.46 1029.42 1986.4 1029.4 1994.09 1030.95 1994.08 1030.95 2010.19 1034.12 2018.16 1035.84 2025.77 1037.71 2032.79 1039.8 2039.03 1042.19 2044.21 1044.95 2046.49 1046.63 2048.38 1048.48 2051.01 1052.11 2052.94 1055.99 2054.22 1060.04 2054.94 1064.22 2055.18 1068.48 2055.03 1072.85 2053.9 1081.54 2052.11 1090.37 2050.2 1099.18 2050.22 1099.05 2048.67 1107.77 2048.71 1107.44 2048.03 1115.92 2048.04 1115.65 2047.93 1149.31 2047.93 1149.28 2048.02 1176.68 2041.15 1176.7 2041.06 1149.29 2041.17 1115.5 2041.87 1106.73 2043.46 1097.78 2045.39 1088.93 2045.38 1088.98 2047.13 1080.29 2047.1 1080.53 2048.19 1072.12 2048.16 1072.45 2048.3 1068.41 2048.3 1068.72 2048.08 1064.8 2048.13 1065.19 2047.48 1061.43 2047.59 1061.89 2046.46 1058.31 2046.66 1058.8 2044.99 1055.42 2045.28 1055.91 2042.99 1052.75 2043.37 1053.19 2041.86 1051.72 2042.22 1052.02 2040.34 1050.64 2040.76 1050.9 2035.99 1048.36 2036.37 1048.54 2030.45 1046.27 2030.7 1046.36 2023.88 1044.32 2024.04 1044.37 2016.56 1042.52 2016.66 1042.55 2008.77 1040.84 2008.83 1040.86 1992.75 1037.69 1985.01 1036.14 1977.76 1034.53 1971.22 1032.81 1965.64 1030.92 1963.16 1029.83 1960.99 1028.64 1959.08 1027.25 1957.46 1025.54 1956.33 1023.37 1956.02 1020.84 1956.65 1018.36 1958.01 1016.13 1960.05 1014.12 1962.7 1012.28 1965.89 1010.51 1969.64 1008.75 1973.91 1006.96 1978.68 1005.14 1983.91 1003.28 1989.55 1001.39 2001.84 997.514 2015.21 993.521 2029.23 989.438 2043.5 985.291 2043.48 985.296 2057.62 981.109 2057.58 981.121 2071.16 976.921 2071.09 976.942 2083.72 972.758 2083.64 972.784 2089.47 970.706 2089.4 970.731 2094.83 968.668 2094.75 968.701 2099.73 966.656 2099.62 966.703 2104.11 964.68 2103.97 964.747 2107.91 962.749 2107.72 962.854 2111.06 960.884 2110.8 961.055 2113.49 959.118 2113.13 959.422 2115.12 957.52 2114.63 958.101 2115.87 956.238 2115.39 957.341 2115.83 955.521 2115.83 957.142 2115.4 955.37 2115.99 956.623 2114.69 954.898 2115.29 955.516 2113.18 953.835 2113.61 954.127 2110.74 952.486 2111.04 952.637 2107.48 951.031 2107.68 951.116 2103.49 949.542 2103.63 949.594 2098.86 948.047 2098.97 948.08 2093.67 946.557 2093.75 946.58 2087.99 945.076 2088.06 945.092 2081.89 943.603 2081.96 943.618 2068.64 940.672 2068.69 940.682 2054.46 937.749 2054.47 937.752 2039.77 934.798 2025.05 931.788 2010.77 928.686 1997.38 925.461 1991.14 923.782 1985.3 922.056 1979.9 920.274 1974.97 918.422 1970.58 916.484 1966.75 914.427 1963.5 912.191 1960.89 909.659 1959.05 906.653 1958.38 903.173 1959.14 899.695 1960.94 896.562 1963.51 893.669 1966.73 890.869 1970.58 888.083 1975.02 885.275 1980 882.432 1985.48 879.547 1991.41 876.623 1997.73 873.657 2011.3 867.647 2025.77 861.547 2040.68 855.413 2055.56 849.297 2055.53 849.307 2069.94 843.258 2069.89 843.282 2083.35 837.357 2083.28 837.387 2089.51 834.488 2089.45 834.517 2095.27 831.671 2095.19 831.711 2100.54 828.923 2100.44 828.978 2105.26 826.257 2105.12 826.336 2109.36 823.689 2109.18 823.807 2112.77 821.24 2112.53 821.429 2115.41 818.948 2115.08 819.27 2117.21 816.884 2116.79 817.467 2118.09 815.181 2117.7 816.228 2118.12 814.051 2118.09 815.153 2117.82 813.079 2118 813.824 2117.27 811.84 2117.57 812.462 2116.39 810.563 2116.74 811.028 2115.13 809.208 2115.46 809.534 2113.43 807.789 2113.72 808.013 2111.3 806.338 2111.54 806.492 2108.73 804.881 2108.93 804.987 2105.75 803.435 2105.98 803.54 2098.57 800.593 2098.8 800.674 2090.09 797.902 2090.25 797.948 2080.36 795.31 2080.47 795.337 2069.53 792.791 2069.6 792.807 2057.74 790.314 2057.78 790.323 2045.1 787.841 2045.13 787.846 2031.77 785.335 2017.84 782.749 2003.46 780.051 1988.73 777.193 1958.84 770.863ZM2063.51 1150.87 2044.61 1183.52 2025.49 1150.99C2024.53 1149.35 2025.08 1147.24 2026.71 1146.28 2028.35 1145.32 2030.46 1145.87 2031.42 1147.5L2047.55 1174.95 2041.61 1174.97 2057.56 1147.42C2058.51 1145.78 2060.62 1145.22 2062.26 1146.17 2063.9 1147.12 2064.46 1149.22 2063.51 1150.87Z" fill="#FF0000"/><text fill="#FF0000" font-family="Aptos,Aptos_MSFontService,sans-serif" font-weight="400" font-size="64" transform="matrix(1 0 0 1 2153.94 914)">incident</text><path d="M1.16064-3.24792 19.4057 3.07628 19.3046 3.04299 37.0644 8.58928 37.0383 8.58125 45.5559 11.1672 53.7476 13.6877 61.5479 16.1874 68.8879 18.7107 75.7013 21.3052 81.9252 24.0234 87.4995 26.9265 92.3646 30.0915 96.4476 33.6172 99.6297 37.6162 101.711 42.1546 102.468 47.1497 102.111 50.1593 101.1 53.0629 99.5707 55.8772 97.5997 58.6509 95.2328 61.4227 92.479 64.2412 86.0919 69.9028 78.5921 75.754 70.282 81.7393 61.4338 87.819 52.3256 93.9446 43.2276 100.071 43.2593 100.049 34.4399 106.132 34.5055 106.086 26.2521 112.068 26.3606 111.986 18.9589 117.811 19.1267 117.67 12.8625 123.282 13.0412 123.11 10.425 125.818 10.5787 125.648 8.35402 128.282 8.53848 128.043 6.74103 130.596 6.95314 130.254 5.61866 132.718 5.83758 132.225 5.0018 134.594 5.16766 133.903 4.86629 136.169 4.87286 135.316 5.12804 137.49 4.93328 136.686 5.71973 138.786 5.40711 138.157 6.68943 140.188 6.35474 139.742 8.09754 141.708 7.79387 141.405 9.96175 143.309 9.70549 143.105 12.2631 144.951 11.9661 144.759 18.1087 148.296 17.8328 148.153 25.1095 151.508 24.9315 151.432 33.059 154.638 32.9485 154.596 41.6437 157.685 41.5837 157.665 50.5635 160.669 50.5464 160.664 59.5399 163.621 68.2879 166.57 76.5264 169.554 83.9958 172.621 90.3985 175.814 93.2171 177.544 95.6733 179.357 97.7765 181.328 99.4729 183.535 100.636 186.055 101.051 188.817 100.649 191.553 99.6161 194.093 98.1035 196.456 96.1968 198.701 93.9385 200.879 91.3253 203.047 85.3244 207.263 78.2778 211.506 70.4532 215.75 62.083 219.985 53.408 224.191 44.673 228.344 36.1168 232.421 36.148 232.406 28.0033 236.388 28.069 236.355 20.5891 240.213 20.703 240.151 14.138 243.856 14.3273 243.741 8.92769 247.265 9.14874 247.108 6.96413 248.794 7.1719 248.62 5.37249 250.25 5.64475 249.974 4.26182 251.544 4.60319 251.084 3.66802 252.592 4.06794 251.667 3.3258 254.446 3.37927 252.905 3.85788 255.372 3.29268 254.046 4.84448 256.247 4.18103 255.542 6.65843 257.522 6.17866 257.201 9.43409 259.005 9.12766 258.854 13.0136 260.528 12.8286 260.455 17.1973 262.043 17.0977 262.009 21.8018 263.558 21.7795 263.55 31.649 266.726 36.5908 268.47 41.3427 270.388 45.7813 272.552 49.7817 275.056 53.2016 278.034 55.7173 281.511 57.3504 285.194 58.5118 289.02 59.6669 296.847 59.7201 305.193 59.0343 313.823 57.9489 322.597 56.7795 331.4 56.7893 331.318 55.8416 340.037 55.8576 339.833 55.4425 348.31 55.4466 348.149 55.3799 381.801 55.3799 381.788 55.4334 409.187 48.5584 409.2 48.5049 381.794 48.5718 348.054 48.9959 339.395 49.959 330.535 51.1318 321.707 51.1278 321.737 52.202 313.053 52.1868 313.203 52.855 304.796 52.8443 305.09 52.7935 297.132 52.8303 297.612 51.7477 290.276 51.8591 290.773 50.8331 287.392 50.98 287.787 49.5787 284.627 49.9363 285.249 47.8625 282.384 48.3897 282.961 45.4706 280.418 45.9042 280.74 42.2874 278.475 42.605 278.652 38.438 276.62 38.6579 276.718 34.0883 274.873 34.2311 274.927 29.4065 273.225 29.4976 273.256 19.6626 270.091 14.8974 268.522 10.3855 266.882 6.25121 265.101 2.59288 263.074-0.492679 260.608-2.75093 257.405-3.52062 253.437-2.4429 249.401-1.08777 247.216 0.613404 245.284 2.65721 243.433 5.05655 241.582 10.6626 237.923 17.3804 234.132 24.9505 230.228 33.1437 226.222 41.7211 222.135 50.4442 217.988 50.4205 217.999 59.0574 213.812 59.0051 213.837 67.3055 209.638 67.2185 209.683 74.932 205.499 74.798 205.576 81.6744 201.436 81.471 201.569 87.26 197.501 87.0415 197.668 89.45 195.669 89.2589 195.84 91.3017 193.871 91.0677 194.12 92.7134 192.183 92.4382 192.555 93.6556 190.653 93.3667 191.211 94.1246 189.348 93.9076 190.144 94.1746 188.324 94.1762 189.333 93.9103 187.56 94.1889 188.491 93.3924 186.766 93.7874 187.42 92.4957 185.739 92.8709 186.153 91.1195 184.511 91.4289 184.769 89.253 183.163 89.4961 183.327 86.9312 181.753 87.1951 181.899 81.04 178.83 81.2684 178.933 73.982 175.942 74.117 175.994 65.9826 173.047 66.0549 173.073 57.3555 170.139 57.3802 170.148 48.3905 167.192 39.3721 164.174 30.5914 161.055 22.3189 157.792 14.8132 154.331 8.38247 150.629 5.54834 148.583 3.09593 146.429 1.02528 144.094-0.594969 141.528-1.65151 138.706-2.00543 135.69-1.60029 132.643-0.555667 129.682 1.0037 126.803 3.00423 123.962 5.40047 121.124 8.18267 118.244 14.621 112.476 22.1623 106.541 30.5034 100.496 39.3716 94.3792 48.4888 88.2398 57.5829 82.1237 57.5546 82.1429 66.3573 76.0946 66.295 76.1384 74.5206 70.2139 74.4151 70.293 81.7779 64.5486 81.6122 64.6864 87.8264 59.1783 87.6477 59.3485 90.2348 56.7005 90.0795 56.8705 92.2722 54.3027 92.0842 54.5439 93.8469 52.0633 93.6287 52.413 94.9256 50.0265 94.6995 50.5379 95.4949 48.2526 95.3278 48.9777 95.5861 46.8007 95.6009 47.7205 94.9862 43.6627 95.2604 44.5809 93.5549 40.8623 93.9896 41.5696 91.268 38.1493 91.7112 38.6107 88.048 35.4475 88.4201 35.7272 83.8898 32.78 84.1765 32.9474 78.8538 30.1753 79.0658 30.2767 73.0252 27.6386 73.1777 27.7009 66.4938 25.1557 66.5996 25.194 59.3469 22.7006 59.4154 22.7234 51.6686 20.2409 51.7067 20.2528 43.5403 17.7401 43.5526 17.7438 35.028 15.1558 17.2044 9.58955-1.09098 3.24792ZM70.9565 383.389 52.0092 416.016 32.9347 383.463C31.9749 381.825 32.5247 379.719 34.1627 378.759 35.8007 377.799 37.9066 378.349 38.8664 379.987L54.9617 407.456 49.0233 407.467 65.0112 379.936C65.9646 378.294 68.0684 377.736 69.7101 378.69 71.3518 379.643 71.9099 381.747 70.9565 383.389Z" fill="#215F9A" transform="matrix(1 0 0 -1 1293.5 1183.5)"/><text fill="#215F9A" font-family="Aptos,Aptos_MSFontService,sans-serif" font-weight="400" font-size="64" transform="matrix(1 0 0 1 1008.23 995)">reflected</text><text font-family="Aptos,Aptos_MSFontService,sans-serif" font-weight="400" font-size="64" transform="matrix(1 0 0 1 1504.86 723)">Floquet</text><text font-family="Aptos,Aptos_MSFontService,sans-serif" font-weight="400" font-size="64" transform="matrix(1 0 0 1 1730.58 723)">Port</text><path d="M1908.5 767.5 2499.75 767.5" stroke="#000000" stroke-width="4.58333" stroke-miterlimit="8" stroke-dasharray="18.3333 13.75" fill="none" fill-rule="evenodd"/><path d="M1904.5 1372.5 2495.75 1372.5" stroke="#000000" stroke-width="4.58333" stroke-miterlimit="8" stroke-dasharray="18.3333 13.75" fill="none" fill-rule="evenodd"/><path d="M2499.94 774.307 2499.94 1365.69 2493.06 1365.69 2493.06 774.307ZM2477.49 800.074 2496.5 767.484 2515.51 800.074C2516.47 801.714 2515.91 803.819 2514.27 804.776 2512.63 805.732 2510.53 805.178 2509.57 803.538L2493.53 776.038 2499.47 776.038 2483.43 803.538C2482.47 805.178 2480.37 805.732 2478.73 804.776 2477.09 803.819 2476.53 801.714 2477.49 800.074ZM2515.51 1339.93 2496.5 1372.52 2477.49 1339.93C2476.53 1338.29 2477.09 1336.18 2478.73 1335.22 2480.37 1334.27 2482.47 1334.82 2483.43 1336.46L2499.47 1363.96 2493.53 1363.96 2509.57 1336.46C2510.53 1334.82 2512.63 1334.27 2514.27 1335.22 2515.91 1336.18 2516.47 1338.29 2515.51 1339.93Z"/><rect x="2328" y="1022" width="335" height="100" fill="#FFFFFF"/><text font-family="Aptos Mono,Aptos Mono_MSFontService,sans-serif" font-weight="400" font-size="55" transform="matrix(1 0 0 1 2361.09 1090)">z_extent</text><text font-family="Aptos,Aptos_MSFontService,sans-serif" font-weight="400" font-size="64" transform="matrix(1 0 0 1 1671.44 1334)">patch</text></g></svg>