#
mtllib Circle_2.mtl
usemtl ff8faf8f
usemtl ff4180ff
v -1.060074e+01 4.039289e+01 0.000000e+00
v -1.108458e+01 3.923301e+01 0.000000e+00
v -1.026300e+01 3.679200e+01 0.000000e+00
v -1.144194e+01 3.802813e+01 0.000000e+00
v -1.166873e+01 3.679200e+01 0.000000e+00
vn 0.000000 0.000000 1.000000
vn 0.000000 0.000000 1.000000
vn 0.000000 0.000000 1.000000
vn 0.000000 0.000000 1.000000
vn 0.000000 0.000000 1.000000
f -5//-5 -4//-4 -3//-3
f -3//-3 -4//-4 -2//-2
f -3//-3 -2//-2 -1//-1
v 1.166873e+01 3.679200e+01 0.000000e+00
v 1.144194e+01 3.802813e+01 0.000000e+00
v 1.026300e+01 3.679200e+01 0.000000e+00
v 1.108458e+01 3.923301e+01 0.000000e+00
v 1.060074e+01 4.039289e+01 0.000000e+00
vn 0.000000 0.000000 1.000000
vn 0.000000 0.000000 1.000000
vn 0.000000 0.000000 1.000000
vn 0.000000 0.000000 1.000000
vn 0.000000 0.000000 1.000000
f -5//-5 -4//-4 -3//-3
f -3//-3 -4//-4 -2//-2
f -3//-3 -2//-2 -1//-1
v -1.166873e+01 3.378800e+01 0.000000e+00
v -1.144194e+01 3.255188e+01 0.000000e+00
v -1.026300e+01 3.378800e+01 0.000000e+00
v -1.108458e+01 3.134699e+01 0.000000e+00
v -1.060074e+01 3.018711e+01 0.000000e+00
vn 0.000000 0.000000 1.000000
vn 0.000000 0.000000 1.000000
vn 0.000000 0.000000 1.000000
vn 0.000000 0.000000 1.000000
vn 0.000000 0.000000 1.000000
f -5//-5 -4//-4 -3//-3
f -3//-3 -4//-4 -2//-2
f -3//-3 -2//-2 -1//-1
v 1.060074e+01 3.018711e+01 0.000000e+00
v 1.108458e+01 3.134699e+01 0.000000e+00
v 1.026300e+01 3.378800e+01 0.000000e+00
v 1.144194e+01 3.255188e+01 0.000000e+00
v 1.166873e+01 3.378800e+01 0.000000e+00
vn 0.000000 0.000000 1.000000
vn 0.000000 0.000000 1.000000
vn 0.000000 0.000000 1.000000
vn 0.000000 0.000000 1.000000
vn 0.000000 0.000000 1.000000
f -5//-5 -4//-4 -3//-3
f -3//-3 -4//-4 -2//-2
f -3//-3 -2//-2 -1//-1
v 9.995936e+00 4.149455e+01 0.000000e+00
v 9.277070e+00 4.252541e+01 0.000000e+00
v 1.026300e+01 3.679200e+01 0.000000e+00
v 8.452345e+00 4.347371e+01 0.000000e+00
v 7.531170e+00 4.432862e+01 0.000000e+00
vn 0.000000 0.000000 1.000000
vn 0.000000 0.000000 1.000000
vn 0.000000 0.000000 1.000000
vn 0.000000 0.000000 1.000000
vn 0.000000 0.000000 1.000000
f -5//-5 -4//-4 -3//-3
f -3//-3 -4//-4 -2//-2
f -3//-3 -2//-2 -1//-1
v 6.524058e+00 4.508040e+01 0.000000e+00
v 5.442501e+00 4.572046e+01 0.000000e+00
v 1.026300e+01 3.679200e+01 0.000000e+00
v 4.298840e+00 4.624149e+01 0.000000e+00
v 3.106125e+00 4.663757e+01 0.000000e+00
vn 0.000000 0.000000 1.000000
vn 0.000000 0.000000 1.000000
vn 0.000000 0.000000 1.000000
vn 0.000000 0.000000 1.000000
vn 0.000000 0.000000 1.000000
f -5//-5 -4//-4 -3//-3
f -3//-3 -4//-4 -2//-2
f -3//-3 -2//-2 -1//-1
v -6.283789e-01 2.354179e+01 0.000000e+00
v 6.283789e-01 2.354179e+01 0.000000e+00
v -1.026300e+01 3.378800e+01 0.000000e+00
v 1.026300e+01 3.378800e+01 0.000000e+00
v -1.026300e+01 3.679200e+01 0.000000e+00
v 1.026300e+01 3.679200e+01 0.000000e+00
v 6.283789e-01 4.703821e+01 0.000000e+00
v 1.877966e+00 4.690415e+01 0.000000e+00
vn 0.000000 0.000000 1.000000
vn 0.000000 0.000000 1.000000
vn 0.000000 0.000000 1.000000
vn 0.000000 0.000000 1.000000
vn 0.000000 0.000000 1.000000
vn 0.000000 0.000000 1.000000
vn 0.000000 0.000000 1.000000
vn 0.000000 0.000000 1.000000
f -8//-8 -7//-7 -6//-6
f -6//-6 -7//-7 -5//-5
f -6//-6 -5//-5 -4//-4
f -4//-4 -5//-5 -3//-3
f -4//-4 -3//-3 -2//-2
f -2//-2 -3//-3 -1//-1
v 6.283789e-01 2.354179e+01 0.000000e+00
v 1.877966e+00 2.367585e+01 0.000000e+00
v 1.026300e+01 3.378800e+01 0.000000e+00
v 3.106125e+00 2.394244e+01 0.000000e+00
v 4.298840e+00 2.433851e+01 0.000000e+00
vn 0.000000 0.000000 1.000000
vn 0.000000 0.000000 1.000000
vn 0.000000 0.000000 1.000000
vn 0.000000 0.000000 1.000000
vn 0.000000 0.000000 1.000000
f -5//-5 -4//-4 -3//-3
f -3//-3 -4//-4 -2//-2
f -3//-3 -2//-2 -1//-1
v 1.877966e+00 4.690415e+01 0.000000e+00
v 1.026300e+01 3.679200e+01 0.000000e+00
v 3.106125e+00 4.663757e+01 0.000000e+00
vn 0.000000 0.000000 1.000000
vn 0.000000 0.000000 1.000000
vn 0.000000 0.000000 1.000000
f -3//-3 -2//-2 -1//-1
v -1.060074e+01 3.018711e+01 0.000000e+00
v -9.995936e+00 2.908545e+01 0.000000e+00
v -1.026300e+01 3.378800e+01 0.000000e+00
v -9.277070e+00 2.805459e+01 0.000000e+00
v -8.452345e+00 2.710629e+01 0.000000e+00
vn 0.000000 0.000000 1.000000
vn 0.000000 0.000000 1.000000
vn 0.000000 0.000000 1.000000
vn 0.000000 0.000000 1.000000
vn 0.000000 0.000000 1.000000
f -5//-5 -4//-4 -3//-3
f -3//-3 -4//-4 -2//-2
f -3//-3 -2//-2 -1//-1
v 1.026300e+01 3.679200e+01 0.000000e+00
v 1.060074e+01 4.039289e+01 0.000000e+00
v 9.995936e+00 4.149455e+01 0.000000e+00
vn 0.000000 0.000000 1.000000
vn 0.000000 0.000000 1.000000
vn 0.000000 0.000000 1.000000
f -3//-3 -2//-2 -1//-1
v 4.298840e+00 2.433851e+01 0.000000e+00
v 5.442501e+00 2.485954e+01 0.000000e+00
v 1.026300e+01 3.378800e+01 0.000000e+00
v 6.524058e+00 2.549960e+01 0.000000e+00
v 7.531170e+00 2.625138e+01 0.000000e+00
vn 0.000000 0.000000 1.000000
vn 0.000000 0.000000 1.000000
vn 0.000000 0.000000 1.000000
vn 0.000000 0.000000 1.000000
vn 0.000000 0.000000 1.000000
f -5//-5 -4//-4 -3//-3
f -3//-3 -4//-4 -2//-2
f -3//-3 -2//-2 -1//-1
v -4.298840e+00 4.624149e+01 0.000000e+00
v -5.442501e+00 4.572046e+01 0.000000e+00
v -1.026300e+01 3.679200e+01 0.000000e+00
v -6.524058e+00 4.508040e+01 0.000000e+00
v -7.531170e+00 4.432862e+01 0.000000e+00
vn 0.000000 0.000000 1.000000
vn 0.000000 0.000000 1.000000
vn 0.000000 0.000000 1.000000
vn 0.000000 0.000000 1.000000
vn 0.000000 0.000000 1.000000
f -5//-5 -4//-4 -3//-3
f -3//-3 -4//-4 -2//-2
f -3//-3 -2//-2 -1//-1
v 7.531170e+00 2.625138e+01 0.000000e+00
v 8.452345e+00 2.710629e+01 0.000000e+00
v 1.026300e+01 3.378800e+01 0.000000e+00
v 9.277070e+00 2.805459e+01 0.000000e+00
v 9.995936e+00 2.908545e+01 0.000000e+00
vn 0.000000 0.000000 1.000000
vn 0.000000 0.000000 1.000000
vn 0.000000 0.000000 1.000000
vn 0.000000 0.000000 1.000000
vn 0.000000 0.000000 1.000000
f -5//-5 -4//-4 -3//-3
f -3//-3 -4//-4 -2//-2
f -3//-3 -2//-2 -1//-1
v -7.531170e+00 4.432862e+01 0.000000e+00
v -8.452345e+00 4.347371e+01 0.000000e+00
v -1.026300e+01 3.679200e+01 0.000000e+00
v -9.277070e+00 4.252541e+01 0.000000e+00
v -9.995936e+00 4.149455e+01 0.000000e+00
vn 0.000000 0.000000 1.000000
vn 0.000000 0.000000 1.000000
vn 0.000000 0.000000 1.000000
vn 0.000000 0.000000 1.000000
vn 0.000000 0.000000 1.000000
f -5//-5 -4//-4 -3//-3
f -3//-3 -4//-4 -2//-2
f -3//-3 -2//-2 -1//-1
v -4.298840e+00 2.433851e+01 0.000000e+00
v -3.106125e+00 2.394244e+01 0.000000e+00
v -1.026300e+01 3.378800e+01 0.000000e+00
v -1.877966e+00 2.367585e+01 0.000000e+00
v -6.283789e-01 2.354179e+01 0.000000e+00
vn 0.000000 0.000000 1.000000
vn 0.000000 0.000000 1.000000
vn 0.000000 0.000000 1.000000
vn 0.000000 0.000000 1.000000
vn 0.000000 0.000000 1.000000
f -5//-5 -4//-4 -3//-3
f -3//-3 -4//-4 -2//-2
f -3//-3 -2//-2 -1//-1
v -8.452345e+00 2.710629e+01 0.000000e+00
v -7.531170e+00 2.625138e+01 0.000000e+00
v -1.026300e+01 3.378800e+01 0.000000e+00
v -6.524058e+00 2.549960e+01 0.000000e+00
v -5.442501e+00 2.485954e+01 0.000000e+00
vn 0.000000 0.000000 1.000000
vn 0.000000 0.000000 1.000000
vn 0.000000 0.000000 1.000000
vn 0.000000 0.000000 1.000000
vn 0.000000 0.000000 1.000000
f -5//-5 -4//-4 -3//-3
f -3//-3 -4//-4 -2//-2
f -3//-3 -2//-2 -1//-1
v 6.283789e-01 4.703821e+01 0.000000e+00
v -6.283789e-01 4.703821e+01 0.000000e+00
v -1.026300e+01 3.679200e+01 0.000000e+00
v -1.877966e+00 4.690415e+01 0.000000e+00
v -3.106125e+00 4.663757e+01 0.000000e+00
vn 0.000000 0.000000 1.000000
vn 0.000000 0.000000 1.000000
vn 0.000000 0.000000 1.000000
vn 0.000000 0.000000 1.000000
vn 0.000000 0.000000 1.000000
f -5//-5 -4//-4 -3//-3
f -3//-3 -4//-4 -2//-2
f -3//-3 -2//-2 -1//-1
v 1.026300e+01 3.378800e+01 0.000000e+00
v 9.995936e+00 2.908545e+01 0.000000e+00
v 1.060074e+01 3.018711e+01 0.000000e+00
vn 0.000000 0.000000 1.000000
vn 0.000000 0.000000 1.000000
vn 0.000000 0.000000 1.000000
f -3//-3 -2//-2 -1//-1
v -4.298840e+00 4.624149e+01 0.000000e+00
v -1.026300e+01 3.679200e+01 0.000000e+00
v -3.106125e+00 4.663757e+01 0.000000e+00
vn 0.000000 0.000000 1.000000
vn 0.000000 0.000000 1.000000
vn 0.000000 0.000000 1.000000
f -3//-3 -2//-2 -1//-1
v -1.026300e+01 3.378800e+01 0.000000e+00
v -5.442501e+00 2.485954e+01 0.000000e+00
v -4.298840e+00 2.433851e+01 0.000000e+00
vn 0.000000 0.000000 1.000000
vn 0.000000 0.000000 1.000000
vn 0.000000 0.000000 1.000000
f -3//-3 -2//-2 -1//-1
v -1.026300e+01 3.679200e+01 0.000000e+00
v -9.995936e+00 4.149455e+01 0.000000e+00
v -1.060074e+01 4.039289e+01 0.000000e+00
vn 0.000000 0.000000 1.000000
vn 0.000000 0.000000 1.000000
vn 0.000000 0.000000 1.000000
f -3//-3 -2//-2 -1//-1
v 6.524058e+00 4.508040e+01 0.000000e+00
v 1.026300e+01 3.679200e+01 0.000000e+00
v 7.531170e+00 4.432862e+01 0.000000e+00
vn 0.000000 0.000000 1.000000
vn 0.000000 0.000000 1.000000
vn 0.000000 0.000000 1.000000
f -3//-3 -2//-2 -1//-1
