#
mtllib coax_pin_2.mtl
usemtl ff8faf8f
usemtl ff4180ff
v -2.834419e+00 3.264672e+01 -1.272000e+00
v -2.809552e+00 3.258006e+01 -3.772000e+00
v -2.809552e+00 3.258006e+01 -1.272000e+00
v -2.766909e+00 3.252309e+01 -3.772000e+00
v -2.766909e+00 3.252309e+01 -1.272000e+00
v -2.709944e+00 3.248045e+01 -3.772000e+00
v -2.709944e+00 3.248045e+01 -1.272000e+00
v -2.643273e+00 3.245558e+01 -3.772000e+00
v -2.643273e+00 3.245558e+01 -1.272000e+00
v -2.572297e+00 3.245050e+01 -3.772000e+00
v -2.572297e+00 3.245050e+01 -1.272000e+00
v -2.502766e+00 3.246563e+01 -3.772000e+00
v -2.502766e+00 3.246563e+01 -1.272000e+00
v -2.440313e+00 3.249973e+01 -3.772000e+00
v -2.440313e+00 3.249973e+01 -1.272000e+00
v -2.389997e+00 3.255005e+01 -3.772000e+00
v -2.389997e+00 3.255005e+01 -1.272000e+00
v -2.355895e+00 3.261250e+01 -3.772000e+00
v -2.355895e+00 3.261250e+01 -1.272000e+00
v -2.340769e+00 3.268203e+01 -3.772000e+00
v -2.340769e+00 3.268203e+01 -1.272000e+00
v -2.345845e+00 3.275301e+01 -3.772000e+00
v -2.345845e+00 3.275301e+01 -1.272000e+00
v -2.370712e+00 3.281968e+01 -3.772000e+00
v -2.370712e+00 3.281968e+01 -1.272000e+00
v -2.413355e+00 3.287664e+01 -3.772000e+00
v -2.413355e+00 3.287664e+01 -1.272000e+00
v -2.470320e+00 3.291929e+01 -3.772000e+00
v -2.470320e+00 3.291929e+01 -1.272000e+00
v -2.536991e+00 3.294415e+01 -3.772000e+00
v -2.536991e+00 3.294415e+01 -1.272000e+00
v -2.607967e+00 3.294923e+01 -3.772000e+00
v -2.607967e+00 3.294923e+01 -1.272000e+00
v -2.677498e+00 3.293410e+01 -3.772000e+00
v -2.677498e+00 3.293410e+01 -1.272000e+00
v -2.739952e+00 3.290000e+01 -3.772000e+00
v -2.739952e+00 3.290000e+01 -1.272000e+00
v -2.790267e+00 3.284969e+01 -3.772000e+00
v -2.790267e+00 3.284969e+01 -1.272000e+00
v -2.824370e+00 3.278724e+01 -3.772000e+00
v -2.824370e+00 3.278724e+01 -1.272000e+00
v -2.839495e+00 3.271770e+01 -3.772000e+00
v -2.839495e+00 3.271770e+01 -1.272000e+00
v -2.834419e+00 3.264672e+01 -3.772000e+00
v -2.834419e+00 3.264672e+01 -1.272000e+00
v -2.809552e+00 3.258006e+01 -3.772000e+00
vn -0.977147 -0.212565 0.000000
vn -0.877679 -0.479249 0.000000
vn -0.877679 -0.479249 0.000000
vn -0.707107 -0.707107 0.000000
vn -0.707107 -0.707107 0.000000
vn -0.479249 -0.877679 0.000000
vn -0.479249 -0.877679 0.000000
vn -0.212565 -0.977147 0.000000
vn -0.212565 -0.977147 0.000000
vn 0.071339 -0.997452 0.000000
vn 0.071339 -0.997452 0.000000
vn 0.349464 -0.936950 0.000000
vn 0.349464 -0.936950 0.000000
vn 0.599278 -0.800541 0.000000
vn 0.599278 -0.800541 0.000000
vn 0.800541 -0.599278 0.000000
vn 0.800541 -0.599278 0.000000
vn 0.936950 -0.349464 0.000000
vn 0.936950 -0.349464 0.000000
vn 0.997452 -0.071339 0.000000
vn 0.997452 -0.071339 0.000000
vn 0.977147 0.212565 0.000000
vn 0.977147 0.212565 0.000000
vn 0.877679 0.479249 0.000000
vn 0.877679 0.479249 0.000000
vn 0.707107 0.707107 0.000000
vn 0.707107 0.707107 0.000000
vn 0.479249 0.877679 0.000000
vn 0.479249 0.877679 0.000000
vn 0.212565 0.977147 0.000000
vn 0.212565 0.977147 0.000000
vn -0.071339 0.997452 -0.000000
vn -0.071339 0.997452 -0.000000
vn -0.349464 0.936950 -0.000000
vn -0.349464 0.936950 -0.000000
vn -0.599278 0.800541 -0.000000
vn -0.599278 0.800541 -0.000000
vn -0.800541 0.599278 -0.000000
vn -0.800541 0.599278 -0.000000
vn -0.936950 0.349464 -0.000000
vn -0.936950 0.349464 -0.000000
vn -0.997452 0.071339 -0.000000
vn -0.997452 0.071339 -0.000000
vn -0.977147 -0.212565 0.000000
vn -0.977147 -0.212565 0.000000
vn -0.877679 -0.479249 0.000000
f -46//-46 -45//-45 -44//-44
f -44//-44 -45//-45 -43//-43
f -44//-44 -43//-43 -42//-42
f -42//-42 -43//-43 -41//-41
f -42//-42 -41//-41 -40//-40
f -40//-40 -41//-41 -39//-39
f -40//-40 -39//-39 -38//-38
f -38//-38 -39//-39 -37//-37
f -38//-38 -37//-37 -36//-36
f -36//-36 -37//-37 -35//-35
f -36//-36 -35//-35 -34//-34
f -34//-34 -35//-35 -33//-33
f -34//-34 -33//-33 -32//-32
f -32//-32 -33//-33 -31//-31
f -32//-32 -31//-31 -30//-30
f -30//-30 -31//-31 -29//-29
f -30//-30 -29//-29 -28//-28
f -28//-28 -29//-29 -27//-27
f -28//-28 -27//-27 -26//-26
f -26//-26 -27//-27 -25//-25
f -26//-26 -25//-25 -24//-24
f -24//-24 -25//-25 -23//-23
f -24//-24 -23//-23 -22//-22
f -22//-22 -23//-23 -21//-21
f -22//-22 -21//-21 -20//-20
f -20//-20 -21//-21 -19//-19
f -20//-20 -19//-19 -18//-18
f -18//-18 -19//-19 -17//-17
f -18//-18 -17//-17 -16//-16
f -16//-16 -17//-17 -15//-15
f -16//-16 -15//-15 -14//-14
f -14//-14 -15//-15 -13//-13
f -14//-14 -13//-13 -12//-12
f -12//-12 -13//-13 -11//-11
f -12//-12 -11//-11 -10//-10
f -10//-10 -11//-11 -9//-9
f -10//-10 -9//-9 -8//-8
f -8//-8 -9//-9 -7//-7
f -8//-8 -7//-7 -6//-6
f -6//-6 -7//-7 -5//-5
f -6//-6 -5//-5 -4//-4
f -4//-4 -5//-5 -3//-3
f -4//-4 -3//-3 -2//-2
f -2//-2 -3//-3 -1//-1
v -2.766909e+00 3.252309e+01 -3.772000e+00
v -2.809552e+00 3.258006e+01 -3.772000e+00
v -2.590132e+00 3.269987e+01 -3.772000e+00
v -2.834419e+00 3.264672e+01 -3.772000e+00
v -2.839495e+00 3.271770e+01 -3.772000e+00
vn 0.000000 -0.000000 -1.000000
vn 0.000000 -0.000000 -1.000000
vn 0.000000 -0.000000 -1.000000
vn 0.000000 -0.000000 -1.000000
vn 0.000000 -0.000000 -1.000000
f -5//-5 -4//-4 -3//-3
f -3//-3 -4//-4 -2//-2
f -3//-3 -2//-2 -1//-1
v -2.839495e+00 3.271770e+01 -3.772000e+00
v -2.824370e+00 3.278724e+01 -3.772000e+00
v -2.590132e+00 3.269987e+01 -3.772000e+00
v -2.790267e+00 3.284969e+01 -3.772000e+00
v -2.739952e+00 3.290000e+01 -3.772000e+00
vn 0.000000 -0.000000 -1.000000
vn 0.000000 -0.000000 -1.000000
vn 0.000000 -0.000000 -1.000000
vn 0.000000 -0.000000 -1.000000
vn 0.000000 -0.000000 -1.000000
f -5//-5 -4//-4 -3//-3
f -3//-3 -4//-4 -2//-2
f -3//-3 -2//-2 -1//-1
v -2.739952e+00 3.290000e+01 -3.772000e+00
v -2.677498e+00 3.293410e+01 -3.772000e+00
v -2.590132e+00 3.269987e+01 -3.772000e+00
v -2.607967e+00 3.294923e+01 -3.772000e+00
v -2.536991e+00 3.294415e+01 -3.772000e+00
vn 0.000000 -0.000000 -1.000000
vn 0.000000 -0.000000 -1.000000
vn 0.000000 -0.000000 -1.000000
vn 0.000000 -0.000000 -1.000000
vn 0.000000 -0.000000 -1.000000
f -5//-5 -4//-4 -3//-3
f -3//-3 -4//-4 -2//-2
f -3//-3 -2//-2 -1//-1
v -2.536991e+00 3.294415e+01 -3.772000e+00
v -2.470320e+00 3.291929e+01 -3.772000e+00
v -2.590132e+00 3.269987e+01 -3.772000e+00
v -2.413355e+00 3.287664e+01 -3.772000e+00
v -2.370712e+00 3.281968e+01 -3.772000e+00
vn 0.000000 -0.000000 -1.000000
vn 0.000000 -0.000000 -1.000000
vn 0.000000 -0.000000 -1.000000
vn 0.000000 -0.000000 -1.000000
vn 0.000000 -0.000000 -1.000000
f -5//-5 -4//-4 -3//-3
f -3//-3 -4//-4 -2//-2
f -3//-3 -2//-2 -1//-1
v -2.370712e+00 3.281968e+01 -3.772000e+00
v -2.345845e+00 3.275301e+01 -3.772000e+00
v -2.590132e+00 3.269987e+01 -3.772000e+00
v -2.340769e+00 3.268203e+01 -3.772000e+00
v -2.355895e+00 3.261250e+01 -3.772000e+00
vn 0.000000 -0.000000 -1.000000
vn 0.000000 -0.000000 -1.000000
vn 0.000000 -0.000000 -1.000000
vn 0.000000 -0.000000 -1.000000
vn 0.000000 -0.000000 -1.000000
f -5//-5 -4//-4 -3//-3
f -3//-3 -4//-4 -2//-2
f -3//-3 -2//-2 -1//-1
v -2.355895e+00 3.261250e+01 -3.772000e+00
v -2.389997e+00 3.255005e+01 -3.772000e+00
v -2.590132e+00 3.269987e+01 -3.772000e+00
v -2.440313e+00 3.249973e+01 -3.772000e+00
v -2.502766e+00 3.246563e+01 -3.772000e+00
vn 0.000000 -0.000000 -1.000000
vn 0.000000 -0.000000 -1.000000
vn 0.000000 -0.000000 -1.000000
vn 0.000000 -0.000000 -1.000000
vn 0.000000 -0.000000 -1.000000
f -5//-5 -4//-4 -3//-3
f -3//-3 -4//-4 -2//-2
f -3//-3 -2//-2 -1//-1
v -2.502766e+00 3.246563e+01 -3.772000e+00
v -2.572297e+00 3.245050e+01 -3.772000e+00
v -2.590132e+00 3.269987e+01 -3.772000e+00
v -2.643273e+00 3.245558e+01 -3.772000e+00
v -2.709944e+00 3.248045e+01 -3.772000e+00
vn 0.000000 -0.000000 -1.000000
vn 0.000000 -0.000000 -1.000000
vn 0.000000 -0.000000 -1.000000
vn 0.000000 -0.000000 -1.000000
vn 0.000000 -0.000000 -1.000000
f -5//-5 -4//-4 -3//-3
f -3//-3 -4//-4 -2//-2
f -3//-3 -2//-2 -1//-1
v -2.590132e+00 3.269987e+01 -3.772000e+00
v -2.709944e+00 3.248045e+01 -3.772000e+00
v -2.766909e+00 3.252309e+01 -3.772000e+00
vn 0.000000 -0.000000 -1.000000
vn 0.000000 -0.000000 -1.000000
vn 0.000000 -0.000000 -1.000000
f -3//-3 -2//-2 -1//-1
v -2.766909e+00 3.252309e+01 -1.272000e+00
v -2.709944e+00 3.248045e+01 -1.272000e+00
v -2.590132e+00 3.269987e+01 -1.272000e+00
v -2.643273e+00 3.245558e+01 -1.272000e+00
v -2.572297e+00 3.245050e+01 -1.272000e+00
vn 0.000000 0.000000 1.000000
vn 0.000000 0.000000 1.000000
vn 0.000000 0.000000 1.000000
vn 0.000000 0.000000 1.000000
vn 0.000000 0.000000 1.000000
f -5//-5 -4//-4 -3//-3
f -3//-3 -4//-4 -2//-2
f -3//-3 -2//-2 -1//-1
v -2.572297e+00 3.245050e+01 -1.272000e+00
v -2.502766e+00 3.246563e+01 -1.272000e+00
v -2.590132e+00 3.269987e+01 -1.272000e+00
v -2.440313e+00 3.249973e+01 -1.272000e+00
v -2.389997e+00 3.255005e+01 -1.272000e+00
vn 0.000000 0.000000 1.000000
vn 0.000000 0.000000 1.000000
vn 0.000000 0.000000 1.000000
vn 0.000000 0.000000 1.000000
vn 0.000000 0.000000 1.000000
f -5//-5 -4//-4 -3//-3
f -3//-3 -4//-4 -2//-2
f -3//-3 -2//-2 -1//-1
v -2.389997e+00 3.255005e+01 -1.272000e+00
v -2.355895e+00 3.261250e+01 -1.272000e+00
v -2.590132e+00 3.269987e+01 -1.272000e+00
v -2.340769e+00 3.268203e+01 -1.272000e+00
v -2.345845e+00 3.275301e+01 -1.272000e+00
vn 0.000000 0.000000 1.000000
vn 0.000000 0.000000 1.000000
vn 0.000000 0.000000 1.000000
vn 0.000000 0.000000 1.000000
vn 0.000000 0.000000 1.000000
f -5//-5 -4//-4 -3//-3
f -3//-3 -4//-4 -2//-2
f -3//-3 -2//-2 -1//-1
v -2.345845e+00 3.275301e+01 -1.272000e+00
v -2.370712e+00 3.281968e+01 -1.272000e+00
v -2.590132e+00 3.269987e+01 -1.272000e+00
v -2.413355e+00 3.287664e+01 -1.272000e+00
v -2.470320e+00 3.291929e+01 -1.272000e+00
vn 0.000000 0.000000 1.000000
vn 0.000000 0.000000 1.000000
vn 0.000000 0.000000 1.000000
vn 0.000000 0.000000 1.000000
vn 0.000000 0.000000 1.000000
f -5//-5 -4//-4 -3//-3
f -3//-3 -4//-4 -2//-2
f -3//-3 -2//-2 -1//-1
v -2.470320e+00 3.291929e+01 -1.272000e+00
v -2.536991e+00 3.294415e+01 -1.272000e+00
v -2.590132e+00 3.269987e+01 -1.272000e+00
v -2.607967e+00 3.294923e+01 -1.272000e+00
v -2.677498e+00 3.293410e+01 -1.272000e+00
vn 0.000000 0.000000 1.000000
vn 0.000000 0.000000 1.000000
vn 0.000000 0.000000 1.000000
vn 0.000000 0.000000 1.000000
vn 0.000000 0.000000 1.000000
f -5//-5 -4//-4 -3//-3
f -3//-3 -4//-4 -2//-2
f -3//-3 -2//-2 -1//-1
v -2.677498e+00 3.293410e+01 -1.272000e+00
v -2.739952e+00 3.290000e+01 -1.272000e+00
v -2.590132e+00 3.269987e+01 -1.272000e+00
v -2.790267e+00 3.284969e+01 -1.272000e+00
v -2.824370e+00 3.278724e+01 -1.272000e+00
vn 0.000000 0.000000 1.000000
vn 0.000000 0.000000 1.000000
vn 0.000000 0.000000 1.000000
vn 0.000000 0.000000 1.000000
vn 0.000000 0.000000 1.000000
f -5//-5 -4//-4 -3//-3
f -3//-3 -4//-4 -2//-2
f -3//-3 -2//-2 -1//-1
v -2.824370e+00 3.278724e+01 -1.272000e+00
v -2.839495e+00 3.271770e+01 -1.272000e+00
v -2.590132e+00 3.269987e+01 -1.272000e+00
v -2.834419e+00 3.264672e+01 -1.272000e+00
v -2.809552e+00 3.258006e+01 -1.272000e+00
vn 0.000000 0.000000 1.000000
vn 0.000000 0.000000 1.000000
vn 0.000000 0.000000 1.000000
vn 0.000000 0.000000 1.000000
vn 0.000000 0.000000 1.000000
f -5//-5 -4//-4 -3//-3
f -3//-3 -4//-4 -2//-2
f -3//-3 -2//-2 -1//-1
v -2.590132e+00 3.269987e+01 -1.272000e+00
v -2.809552e+00 3.258006e+01 -1.272000e+00
v -2.766909e+00 3.252309e+01 -1.272000e+00
vn 0.000000 0.000000 1.000000
vn 0.000000 0.000000 1.000000
vn 0.000000 0.000000 1.000000
f -3//-3 -2//-2 -1//-1
