#
mtllib Ground.mtl
usemtl ff8faf8f
usemtl ff4180ff
v -3.326254e+00 3.227487e+01 -1.272000e+00
v -3.411169e+00 3.247987e+01 -1.272000e+00
v -1.764500e+01 1.764500e+01 -1.272000e+00
v -3.440132e+00 3.269987e+01 -1.272000e+00
v -1.764500e+01 5.293500e+01 -1.272000e+00
v -3.411169e+00 3.291986e+01 -1.272000e+00
v -3.326254e+00 3.312487e+01 -1.272000e+00
vn -0.000000 0.000000 1.000000
vn -0.000000 0.000000 1.000000
vn -0.000000 0.000000 1.000000
vn -0.000000 0.000000 1.000000
vn -0.000000 0.000000 1.000000
vn -0.000000 0.000000 1.000000
vn -0.000000 0.000000 1.000000
f -7//-7 -6//-6 -5//-5
f -5//-5 -6//-6 -4//-4
f -5//-5 -4//-4 -3//-3
f -3//-3 -4//-4 -2//-2
f -3//-3 -2//-2 -1//-1
v -2.590132e+00 3.184987e+01 -1.272000e+00
v -2.810128e+00 3.187883e+01 -1.272000e+00
v -1.764500e+01 1.764500e+01 -1.272000e+00
v -3.015132e+00 3.196375e+01 -1.272000e+00
v -3.191173e+00 3.209883e+01 -1.272000e+00
vn -0.000000 0.000000 1.000000
vn -0.000000 0.000000 1.000000
vn -0.000000 0.000000 1.000000
vn -0.000000 0.000000 1.000000
vn -0.000000 0.000000 1.000000
f -5//-5 -4//-4 -3//-3
f -3//-3 -4//-4 -2//-2
f -3//-3 -2//-2 -1//-1
v -3.326254e+00 3.312487e+01 -1.272000e+00
v -3.191173e+00 3.330091e+01 -1.272000e+00
v -1.764500e+01 5.293500e+01 -1.272000e+00
v -3.015132e+00 3.343599e+01 -1.272000e+00
v -2.810128e+00 3.352090e+01 -1.272000e+00
vn -0.000000 0.000000 1.000000
vn -0.000000 0.000000 1.000000
vn -0.000000 0.000000 1.000000
vn -0.000000 0.000000 1.000000
vn -0.000000 0.000000 1.000000
f -5//-5 -4//-4 -3//-3
f -3//-3 -4//-4 -2//-2
f -3//-3 -2//-2 -1//-1
v -1.764500e+01 1.764500e+01 -1.272000e+00
v -3.191173e+00 3.209883e+01 -1.272000e+00
v -3.326254e+00 3.227487e+01 -1.272000e+00
vn -0.000000 0.000000 1.000000
vn -0.000000 0.000000 1.000000
vn -0.000000 0.000000 1.000000
f -3//-3 -2//-2 -1//-1
v -1.854011e+00 3.312487e+01 -1.272000e+00
v -1.769095e+00 3.291986e+01 -1.272000e+00
v 1.764500e+01 5.293500e+01 -1.272000e+00
v -1.740132e+00 3.269987e+01 -1.272000e+00
v 1.764500e+01 1.764500e+01 -1.272000e+00
v -1.769095e+00 3.247987e+01 -1.272000e+00
v -1.854011e+00 3.227487e+01 -1.272000e+00
vn -0.000000 0.000000 1.000000
vn -0.000000 0.000000 1.000000
vn -0.000000 0.000000 1.000000
vn -0.000000 0.000000 1.000000
vn -0.000000 0.000000 1.000000
vn -0.000000 0.000000 1.000000
vn -0.000000 0.000000 1.000000
f -7//-7 -6//-6 -5//-5
f -5//-5 -6//-6 -4//-4
f -5//-5 -4//-4 -3//-3
f -3//-3 -4//-4 -2//-2
f -3//-3 -2//-2 -1//-1
v -2.590132e+00 3.354987e+01 -1.272000e+00
v -2.370136e+00 3.352090e+01 -1.272000e+00
v 1.764500e+01 5.293500e+01 -1.272000e+00
v -2.165132e+00 3.343599e+01 -1.272000e+00
v -1.989091e+00 3.330091e+01 -1.272000e+00
vn -0.000000 0.000000 1.000000
vn -0.000000 0.000000 1.000000
vn -0.000000 0.000000 1.000000
vn -0.000000 0.000000 1.000000
vn -0.000000 0.000000 1.000000
f -5//-5 -4//-4 -3//-3
f -3//-3 -4//-4 -2//-2
f -3//-3 -2//-2 -1//-1
v -2.165132e+00 3.196375e+01 -1.272000e+00
v -2.370136e+00 3.187883e+01 -1.272000e+00
v 1.764500e+01 1.764500e+01 -1.272000e+00
v -2.590132e+00 3.184987e+01 -1.272000e+00
v -1.764500e+01 1.764500e+01 -1.272000e+00
vn -0.000000 0.000000 1.000000
vn -0.000000 0.000000 1.000000
vn -0.000000 0.000000 1.000000
vn -0.000000 0.000000 1.000000
vn -0.000000 0.000000 1.000000
f -5//-5 -4//-4 -3//-3
f -3//-3 -4//-4 -2//-2
f -3//-3 -2//-2 -1//-1
v -2.165132e+00 3.196375e+01 -1.272000e+00
v 1.764500e+01 1.764500e+01 -1.272000e+00
v -1.989091e+00 3.209883e+01 -1.272000e+00
v -1.854011e+00 3.227487e+01 -1.272000e+00
vn -0.000000 0.000000 1.000000
vn -0.000000 0.000000 1.000000
vn -0.000000 0.000000 1.000000
vn -0.000000 0.000000 1.000000
f -4//-4 -3//-3 -2//-2
f -2//-2 -3//-3 -1//-1
v 1.764500e+01 5.293500e+01 -1.272000e+00
v -1.764500e+01 5.293500e+01 -1.272000e+00
v -2.590132e+00 3.354987e+01 -1.272000e+00
v -2.810128e+00 3.352090e+01 -1.272000e+00
vn -0.000000 0.000000 1.000000
vn -0.000000 0.000000 1.000000
vn -0.000000 0.000000 1.000000
vn -0.000000 0.000000 1.000000
f -4//-4 -3//-3 -2//-2
f -2//-2 -3//-3 -1//-1
v 1.764500e+01 5.293500e+01 -1.272000e+00
v -1.989091e+00 3.330091e+01 -1.272000e+00
v -1.854011e+00 3.312487e+01 -1.272000e+00
vn -0.000000 0.000000 1.000000
vn -0.000000 0.000000 1.000000
vn -0.000000 0.000000 1.000000
f -3//-3 -2//-2 -1//-1
