#
mtllib Soil.mtl
usemtl ff8faf8f
usemtl ff008000
v 1.764500e+01 1.764500e+01 -1.272000e+00
v 1.764500e+01 5.293500e+01 -1.272000e+00
v 1.764500e+01 1.764500e+01 0.000000e+00
v 1.764500e+01 5.293500e+01 0.000000e+00
vn 1.000000 -0.000000 -0.000000
vn 1.000000 -0.000000 -0.000000
vn 1.000000 -0.000000 -0.000000
vn 1.000000 -0.000000 -0.000000
f -4//-4 -3//-3 -2//-2
f -2//-2 -3//-3 -1//-1
v -1.764500e+01 5.293500e+01 0.000000e+00
v 1.764500e+01 5.293500e+01 0.000000e+00
v -1.764500e+01 5.293500e+01 -1.272000e+00
v 1.764500e+01 5.293500e+01 -1.272000e+00
vn -0.000000 1.000000 -0.000000
vn -0.000000 1.000000 -0.000000
vn -0.000000 1.000000 -0.000000
vn -0.000000 1.000000 -0.000000
f -4//-4 -3//-3 -2//-2
f -2//-2 -3//-3 -1//-1
v 1.764500e+01 1.764500e+01 0.000000e+00
v 1.764500e+01 5.293500e+01 0.000000e+00
v -1.764500e+01 1.764500e+01 0.000000e+00
v -1.764500e+01 5.293500e+01 0.000000e+00
vn 0.000000 0.000000 1.000000
vn 0.000000 0.000000 1.000000
vn 0.000000 0.000000 1.000000
vn 0.000000 0.000000 1.000000
f -4//-4 -3//-3 -2//-2
f -2//-2 -3//-3 -1//-1
v -1.764500e+01 1.764500e+01 -1.272000e+00
v 1.764500e+01 1.764500e+01 -1.272000e+00
v -1.764500e+01 1.764500e+01 0.000000e+00
v 1.764500e+01 1.764500e+01 0.000000e+00
vn -0.000000 -1.000000 -0.000000
vn -0.000000 -1.000000 -0.000000
vn -0.000000 -1.000000 -0.000000
vn -0.000000 -1.000000 -0.000000
f -4//-4 -3//-3 -2//-2
f -2//-2 -3//-3 -1//-1
v -1.764500e+01 1.764500e+01 0.000000e+00
v -1.764500e+01 5.293500e+01 0.000000e+00
v -1.764500e+01 1.764500e+01 -1.272000e+00
v -1.764500e+01 5.293500e+01 -1.272000e+00
vn -1.000000 -0.000000 -0.000000
vn -1.000000 -0.000000 -0.000000
vn -1.000000 -0.000000 -0.000000
vn -1.000000 -0.000000 -0.000000
f -4//-4 -3//-3 -2//-2
f -2//-2 -3//-3 -1//-1
v 1.764500e+01 5.293500e+01 -1.272000e+00
v 1.764500e+01 1.764500e+01 -1.272000e+00
v -1.764500e+01 5.293500e+01 -1.272000e+00
v -1.764500e+01 1.764500e+01 -1.272000e+00
vn -0.000000 -0.000000 -1.000000
vn -0.000000 -0.000000 -1.000000
vn -0.000000 -0.000000 -1.000000
vn -0.000000 -0.000000 -1.000000
f -4//-4 -3//-3 -2//-2
f -2//-2 -3//-3 -1//-1
